<?xml version="1.0"?>
<svg xmlns="http://www.w3.org/2000/svg" xmlns:xlink="http://www.w3.org/1999/xlink" version="1.1" viewBox="0 0 226 226" width="512px" height="512px"><g fill="none" fill-rule="nonzero" stroke="none" stroke-width="1" stroke-linecap="butt" stroke-linejoin="miter" stroke-miterlimit="10" stroke-dasharray="" stroke-dashoffset="0" font-family="none" font-weight="none" font-size="none" text-anchor="none" style="mix-blend-mode: normal"><path d="M0,226v-226h226v226z" fill="none"/><g id="Layer_1"><g><g fill="#07b7c0"><g><g><g><g><g><g><path d="M222.51289,113c0,-60.47266 -49.04023,-109.51289 -109.51289,-109.51289c-60.47266,0 -109.51289,49.04023 -109.51289,109.51289c0,60.47266 49.04023,109.51289 109.51289,109.51289c60.47266,0 109.51289,-49.04023 109.51289,-109.51289z"/></g></g></g></g></g></g></g><g fill="#ffffff"><g><path d="M173.29609,76.31914c-2.56016,-6.66523 -7.81289,-5.60586 -13.50703,-4.4582c-3.39883,0.70625 -18.53906,5.12031 -42.41914,30.36875c-9.93164,10.46133 -16.46445,18.80391 -20.79023,25.16016c-2.64844,-3.22227 -5.65,-6.70937 -8.82812,-9.84336c-9.75508,-9.75508 -20.65781,-16.46445 -21.09922,-16.7293c-4.54648,-2.78086 -10.50547,-1.36836 -13.33047,3.22227c-2.78086,4.54648 -1.36836,10.50547 3.17813,13.33047c0.08828,0.04414 9.44609,5.82656 17.47969,13.9043c8.21016,8.21016 15.66992,19.33359 15.7582,19.46602c1.80977,2.73672 4.85547,4.32578 8.07773,4.32578c0.52969,0 1.10352,-0.04414 1.67734,-0.13242c3.79609,-0.66211 6.79766,-3.48711 7.72461,-7.19492c0.04414,-0.08828 3.88438,-10.72617 24.14492,-32.09023c16.33203,-17.25898 27.23477,-22.73242 31.03086,-24.2332c0.04414,0 0.04414,0 0.13242,0c0,0 0.13242,-0.04414 0.35313,-0.17656c0.66211,-0.26484 1.01523,-0.35313 1.01523,-0.35313c-0.17656,0.04414 -0.26484,0.04414 -0.26484,0.04414v-0.04414c1.76563,-0.75039 5.03203,-2.16289 5.07617,-2.20703c4.89961,-2.11875 6.53281,-7.41563 4.59062,-12.35938z"/></g></g></g></g></g></svg>
